<?xml version="1.0" ?><svg height="30" version="1.1" viewBox="0 0 254 251" width="30" xmlns="http://www.w3.org/2000/svg" xmlns:xlink="http://www.w3.org/1999/xlink"><title/><desc/><defs/><g fill="none" fill-rule="evenodd" id="Page-1" stroke="none" stroke-width="1"><g fill-rule="nonzero" id="notification"><path d="M247.071,166.022 L221.201,166.022 L221.201,118.88 C221.201,69.103 182.216,28.266 133.177,25.282 L133.177,6.081 C133.177,2.768 130.49,0.081 127.177,0.081 C123.864,0.081 121.177,2.768 121.177,6.081 L121.177,25.211 C71.536,27.553 31.871,68.671 31.871,118.881 L31.871,149.536 C31.871,152.849 34.558,155.536 37.871,155.536 C41.184,155.536 43.871,152.849 43.871,149.536 L43.871,118.88 C43.871,73.787 80.557,37.101 125.649,37.101 L127.422,37.101 C172.515,37.101 209.201,73.788 209.201,118.88 L209.201,166.022 L6,166.022 C2.687,166.022 0,168.709 0,172.022 L0,206.81 C0,210.123 2.687,212.81 6,212.81 L247.071,212.81 C250.384,212.81 253.071,210.123 253.071,206.81 L253.071,172.022 C253.071,168.708 250.385,166.022 247.071,166.022 Z M241.071,200.81 L12,200.81 L12,178.022 L241.071,178.022 L241.071,200.81 Z" fill="rgb(246, 183, 83)" stroke="rgb(246, 183, 83)" stroke-width="8" id="Shape"/><path d="M148.172,217.571 C144.859,217.571 142.172,220.258 142.172,223.571 C142.172,232.074 135.255,238.991 126.752,238.991 L126.319,238.991 C117.817,238.991 110.9,232.074 110.9,223.571 C110.9,220.258 108.213,217.571 104.9,217.571 C101.587,217.571 98.9,220.258 98.9,223.571 C98.9,238.69 111.2,250.991 126.319,250.991 L126.752,250.991 C141.872,250.991 154.172,238.69 154.172,223.571 C154.172,220.257 151.485,217.571 148.172,217.571 Z" fill="rgb(246, 183, 83" stroke="rgb(246, 183, 83)" stroke-width="8" id="Shape"/></g></g></svg>
