<?xml version="1.0" ?><svg id="Icons" style="enable-background:new 0 0 32 32;" version="1.1" viewBox="0 0 32 32" width="20" xml:space="preserve" xmlns="http://www.w3.org/2000/svg" xmlns:xlink="http://www.w3.org/1999/xlink"><style type="text/css">
	.st0{fill:none;stroke:rgb(133, 132, 132);stroke-width:3;stroke-linecap:round;stroke-linejoin:round;stroke-miterlimit:10;}
</style><path class="st0" d="M27.8,23.2l-1.1-1.7c-1.9-2.8-2.9-6.1-2.9-9.5c0-3.6-2.4-6.5-5.6-7.5C17.9,3.6,17,3,16,3s-1.9,0.6-2.2,1.5  c-3.2,1-5.6,3.9-5.6,7.5c0,3.4-1,6.7-2.9,9.5l-1.1,1.7C3.7,24,4.2,25,5.2,25h21.6C27.8,25,28.3,24,27.8,23.2z"/><path class="st0" d="M20,25c0,2.2-1.8,4-4,4s-4-1.8-4-4"/></svg>