<?xml version="1.0" ?><svg fill="none" height="20" viewBox="0 0 28 28" width="20" xmlns="http://www.w3.org/2000/svg" style="stroke:rgb(133, 132, 132); fill:rgb(113, 111, 111);stroke-width:0.5;"  stroke-linecap="round" stroke-linejoin="round"><path clip-rule="evenodd" d="M7.72917 2C7.44152 2 7.20833 2.23359 7.20833 2.52174V5.13043H4.08333C2.93274 5.13043 2 6.0648 2 7.21739V23.913C2 25.0656 2.93274 26 4.08333 26H24.9167C26.0673 26 27 25.0656 27 23.913V7.21739C27 6.0648 26.0673 5.13043 24.9167 5.13043H21.7917V2.52174C21.7917 2.23359 21.5585 2 21.2708 2H20.2292C19.9415 2 19.7083 2.23359 19.7083 2.52174V5.13043H9.29167V2.52174C9.29167 2.23359 9.05848 2 8.77083 2H7.72917ZM19.7083 7.21739L9.29167 7.21739V8.26087C9.29167 8.54902 9.05848 8.78261 8.77083 8.78261H7.72917C7.44152 8.78261 7.20833 8.54902 7.20833 8.26087V7.21739H5.125C4.5497 7.21739 4.08333 7.68457 4.08333 8.26087V10.3478H24.9167V8.26087C24.9167 7.68457 24.4503 7.21739 23.875 7.21739H21.7917V8.26087C21.7917 8.54902 21.5585 8.78261 21.2708 8.78261H20.2292C19.9415 8.78261 19.7083 8.54902 19.7083 8.26087V7.21739ZM4.08333 12.4348H24.9167V22.8696C24.9167 23.4459 24.4503 23.913 23.875 23.913H5.125C4.5497 23.913 4.08333 23.4459 4.08333 22.8696V12.4348Z" fill-rule="evenodd"/></svg>
