<?xml version="1.0" ?><svg data-name="Layer 1" id="Layer_1" viewBox="0 0 512 512" xmlns="http://www.w3.org/2000/svg" height="30" width="30" stroke-width="20" style="stroke:#f0731f; fill:#f0731f;"  ><title/><path d="M476.06,414,421.79,196.89a4.34,4.34,0,0,0-4.22-3.3H379.25c-3.79-43.28-14.86-61.12-23.64-68.4-.7-.59-1.39-1.06-2.07-1.53a40.12,40.12,0,1,0-43.72,0c-.69.47-1.37.94-2.08,1.53-8.78,7.28-19.85,25.12-23.63,68.4H227.89c-3.78-43.28-14.85-61.12-23.63-68.4-.71-.59-1.39-1.06-2.08-1.53a40.12,40.12,0,1,0-43.72,0c-.68.47-1.36.94-2.07,1.53-8.78,7.28-19.85,25.12-23.64,68.4H94.43a4.36,4.36,0,0,0-4.23,3.3L35.94,414a4.34,4.34,0,0,0,4.22,5.4h77.93a263.52,263.52,0,0,0-5.31,38,4.35,4.35,0,0,0,4,4.66h.33a4.34,4.34,0,0,0,4.33-4c5.46-73.69,27.85-81.28,33-81.95a45.77,45.77,0,0,0,26.73,0c4.9.69,27.62,7.82,33.11,81.92a4.35,4.35,0,0,0,4.34,4H219a4.35,4.35,0,0,0,4-4.66,266.36,266.36,0,0,0-5.31-38h76.68a266.36,266.36,0,0,0-5.31,38,4.35,4.35,0,0,0,4,4.66h.32a4.35,4.35,0,0,0,4.34-4c1.26-17,3.44-30.49,6.09-41.2a4.36,4.36,0,0,0,.3-1.22c8.83-34.48,22.7-39,26.61-39.53a45.73,45.73,0,0,0,26.72,0c4.9.69,27.63,7.83,33.12,81.92a4.34,4.34,0,0,0,4.33,4h.33a4.35,4.35,0,0,0,4-4.66,265.08,265.08,0,0,0-5.3-38h77.92a4.34,4.34,0,0,0,4.22-5.4ZM300.26,90.06A31.42,31.42,0,1,1,342,119.72l-.49,0a4.34,4.34,0,0,0-1.76.65,30.42,30.42,0,0,1-16,0,4.44,4.44,0,0,0-1.8-.66l-.48,0A31.46,31.46,0,0,1,300.26,90.06Zm19.85,38.41a39.88,39.88,0,0,0,23,0c4.06.64,22.16,6.77,27.38,65.1H292.82C298,135.68,315.88,129.1,320.11,128.47ZM148.91,90.06a31.42,31.42,0,1,1,41.69,29.66l-.48,0a4.38,4.38,0,0,0-1.77.65,30.42,30.42,0,0,1-16,0,4.34,4.34,0,0,0-1.79-.66l-.48,0A31.44,31.44,0,0,1,148.91,90.06Zm19.85,38.41a39.88,39.88,0,0,0,23,0c4.06.64,22.15,6.75,27.38,65.1H141.47C146.66,135.66,164.52,129.09,168.76,128.47ZM180,367.33a5.08,5.08,0,0,0-.61,0,4,4,0,0,0-1.84.7,36.12,36.12,0,0,1-19.28,0,4.25,4.25,0,0,0-1.85-.7,5.31,5.31,0,0,0-.62,0,37.3,37.3,0,1,1,24.2,0Zm176.26,0a5.31,5.31,0,0,0-.62,0,4,4,0,0,0-1.83.7,36.12,36.12,0,0,1-19.28,0,4.24,4.24,0,0,0-1.86-.7,5.08,5.08,0,0,0-.61,0,37.3,37.3,0,1,1,24.2,0Zm35.54,43.34C386,389.8,378.18,379,371.54,373.53a32.43,32.43,0,0,0-3.26-2.37,46,46,0,1,0-48.3,0,32.5,32.5,0,0,0-3.27,2.37c-6.63,5.5-14.41,16.27-20.22,37.14h-81c-5.81-20.87-13.59-31.64-20.22-37.14a32.5,32.5,0,0,0-3.27-2.37,46,46,0,1,0-48.29,0,32.5,32.5,0,0,0-3.27,2.37c-6.64,5.5-14.41,16.27-20.22,37.14H45.73L97.82,202.29H414.18l52.09,208.38Z" /></svg>