<svg width="25" height="25" viewBox="0 0 25 25" fill="none" xmlns="http://www.w3.org/2000/svg">
<path d="M0.78125 3.125H24.2188V4.6875H0.78125V3.125Z" fill="#626D8A"/>
<path d="M4.6875 4.6875V17.1875H20.3125V4.6875H4.6875ZM3.125 3.125H21.875V17.9688C21.875 18.176 21.7927 18.3747 21.6462 18.5212C21.4997 18.6677 21.301 18.75 21.0938 18.75H3.90625C3.69905 18.75 3.50034 18.6677 3.35382 18.5212C3.20731 18.3747 3.125 18.176 3.125 17.9688V3.125Z" fill="#626D8A"/>
<path d="M7.86562 23.4375H6.0625L9.59375 17.3203L10.9469 18.1016L7.86562 23.4375ZM18.9469 23.4375H17.1438L14.0625 18.1016L15.4156 17.3203L18.9469 23.4375Z" fill="#626D8A"/>
</svg>
