<svg width="20" height="20" viewBox="0 0 20 20" fill="none" xmlns="http://www.w3.org/2000/svg">
<g clip-path="url(#clip0_697_6845)">
<path d="M9.73398 10.8C11.0595 10.8 12.134 9.72548 12.134 8.4C12.134 7.07452 11.0595 6 9.73398 6C8.4085 6 7.33398 7.07452 7.33398 8.4C7.33398 9.72548 8.4085 10.8 9.73398 10.8Z" stroke="#1F2131" stroke-width="1.3" stroke-linecap="round" stroke-linejoin="round"/>
<path d="M9.73301 2C8.03562 2 6.40776 2.67428 5.20752 3.87452C4.00729 5.07475 3.33301 6.70261 3.33301 8.4C3.33301 9.9136 3.65461 10.904 4.53301 12L9.73301 18L14.933 12C15.8114 10.904 16.133 9.9136 16.133 8.4C16.133 6.70261 15.4587 5.07475 14.2585 3.87452C13.0583 2.67428 11.4304 2 9.73301 2V2Z" stroke="#1F2131" stroke-width="1.3" stroke-linecap="round" stroke-linejoin="round"/>
</g>
<defs>
<clipPath id="clip0_697_6845">
<rect width="20" height="20" fill="white"/>
</clipPath>
</defs>
</svg>
