<svg width="21" height="19" viewBox="0 0 21 19" fill="none" xmlns="http://www.w3.org/2000/svg">
<path d="M7.37504 18.875C7.0799 18.875 6.83268 18.775 6.63337 18.575C6.43337 18.3757 6.33337 18.1285 6.33337 17.8333V16.7917H2.16671C1.59379 16.7917 1.10351 16.5878 0.695874 16.1802C0.287541 15.7719 0.083374 15.2812 0.083374 14.7083V2.20833C0.083374 1.63542 0.287541 1.14479 0.695874 0.736458C1.10351 0.328819 1.59379 0.125 2.16671 0.125H18.8334C19.4063 0.125 19.8969 0.328819 20.3053 0.736458C20.7129 1.14479 20.9167 1.63542 20.9167 2.20833V14.7083C20.9167 15.2812 20.7129 15.7719 20.3053 16.1802C19.8969 16.5878 19.4063 16.7917 18.8334 16.7917H14.6667V17.8333C14.6667 18.1285 14.5671 18.3757 14.3678 18.575C14.1678 18.775 13.9202 18.875 13.625 18.875H7.37504ZM2.16671 14.7083H18.8334V2.20833H2.16671V14.7083ZM2.16671 14.7083V2.20833V14.7083Z" fill="#626D8A"/>
</svg>
