<svg width="13" height="13" viewBox="0 0 13 13" fill="none" xmlns="http://www.w3.org/2000/svg">
<path d="M4.625 12.125C4.44792 12.125 4.29958 12.065 4.18 11.945C4.06 11.8254 4 11.6771 4 11.5V10.875H1.5C1.15625 10.875 0.862083 10.7527 0.6175 10.5081C0.3725 10.2631 0.25 9.96875 0.25 9.625V2.125C0.25 1.78125 0.3725 1.48687 0.6175 1.24187C0.862083 0.997292 1.15625 0.875 1.5 0.875H11.5C11.8438 0.875 12.1381 0.997292 12.3831 1.24187C12.6277 1.48687 12.75 1.78125 12.75 2.125V9.625C12.75 9.96875 12.6277 10.2631 12.3831 10.5081C12.1381 10.7527 11.8438 10.875 11.5 10.875H9V11.5C9 11.6771 8.94021 11.8254 8.82063 11.945C8.70063 12.065 8.55208 12.125 8.375 12.125H4.625ZM1.5 9.625H11.5V2.125H1.5V9.625ZM1.5 9.625V2.125V9.625Z" fill="#626D8A"/>
</svg>
