<svg width="15" height="15" viewBox="0 0 15 15" fill="none" xmlns="http://www.w3.org/2000/svg">
<path d="M0.46875 1.875H14.5312V2.8125H0.46875V1.875Z" fill="#626D8A"/>
<path d="M2.8125 2.8125V10.3125H12.1875V2.8125H2.8125ZM1.875 1.875H13.125V10.7812C13.125 10.9056 13.0756 11.0248 12.9877 11.1127C12.8998 11.2006 12.7806 11.25 12.6562 11.25H2.34375C2.21943 11.25 2.1002 11.2006 2.01229 11.1127C1.92439 11.0248 1.875 10.9056 1.875 10.7812V1.875Z" fill="#626D8A"/>
<path d="M4.71957 14.0629H3.6377L5.75645 10.3926L6.56832 10.8613L4.71957 14.0629ZM11.3683 14.0629H10.2864L8.4377 10.8613L9.24957 10.3926L11.3683 14.0629Z" fill="#626D8A"/>
</svg>
